<svg xmlns="http://www.w3.org/2000/svg" xml:space="preserve" style="fill-rule:evenodd;clip-rule:evenodd;stroke-linejoin:round;stroke-miterlimit:2" viewBox="0 0 16 16"><path d="M1 1h14v14H1z" style="fill:#fff;fill-rule:nonzero"/><path d="M1 1v14h14V1H1Zm1 1h12v12H2V2Z" style="fill:#999;fill-rule:nonzero"/><path d="M3 3h10v2H3z" style="fill:#666;fill-rule:nonzero"/><path d="M7 6h2v1H7V6Zm0 2h2v1H7V8Zm0 2h2v1H7v-1Zm0 2h2v1H7v-1Zm3-6h3v1h-3V6Zm0 2h3v1h-3V8Zm0 2h3v1h-3v-1Zm0 2h3v1h-3v-1ZM3 6h3v1H3V6Zm0 2h3v1H3V8Zm0 2h3v1H3v-1Zm0 2h3v1H3v-1Z" style="fill:#b9b9b9;fill-rule:nonzero"/><circle cx="12.765" cy="12.643" r="3.143" style="fill:#259600" transform="translate(-1.672 -1.536) scale(1.1109)"/><text x="4.877" y="3.648" style="font-family:&quot;Arial-BoldMT&quot;,&quot;Arial&quot;,sans-serif;font-weight:700;font-size:8px;fill:#fff" transform="translate(5.298 11.687)">+</text></svg>